<?xml version="1.0" encoding="utf-8"?>
<!-- Generator: Adobe Illustrator 19.0.0, SVG Export Plug-In . SVG Version: 6.00 Build 0)  -->
<svg version="1.1" id="Layer_1" xmlns="http://www.w3.org/2000/svg" xmlns:xlink="http://www.w3.org/1999/xlink" x="0px" y="0px"
	 viewBox="0 0 500 500" style="enable-background:new 0 0 500 500;" xml:space="preserve">
<style type="text/css">
	.st0{fill:#AE132A;}
</style>
<g id="XMLID_1_">
	<polygon id="XMLID_2_" class="st0" points="422.3,275 419.8,275 419.8,281.4 417.6,281.4 417.6,275 415.2,275 415.2,273.1 
		422.3,273.1 422.3,275 	"/>
	<polygon id="XMLID_3_" class="st0" points="423.2,273.1 426.4,273.1 427.9,278.7 427.9,278.7 429.3,273.1 432.5,273.1 432.5,281.4 
		430.5,281.4 430.5,275.1 430.5,275.1 428.7,281.5 427.1,281.5 425.3,275.1 425.3,275.1 425.3,281.5 423.3,281.5 423.3,273.1 	"/>
	<path id="XMLID_4_" class="st0" d="M336.6,281c-2.9,1.3-6,1.9-9.1,1.9c-4.9,0-9.2-0.8-13.1-2.5c-3.7-1.6-7.1-4-9.8-7
		c-2.7-3-4.8-6.6-6.1-10.5c-1.4-4.2-2.2-8.5-2.1-13c0-4.5,0.7-9,2.1-13.2c1.3-3.9,3.4-7.5,6.1-10.6c2.7-3.1,6.1-5.5,9.8-7.1
		c3.9-1.7,8.2-2.6,13.1-2.6c3.2,0,6.4,0.5,9.4,1.5c3,0.9,5.8,2.4,8.3,4.3c5.2,4,8.5,10.1,9,16.6h-13.3c-0.8-3.6-2.4-6.2-4.8-8
		c-2.4-1.8-5.2-2.7-8.6-2.7c-3.1,0-5.8,0.6-8,1.8c-2.1,1.2-4,2.9-5.3,4.9c-1.4,2.1-2.4,4.5-3,7c-0.6,2.7-0.9,5.4-0.9,8.1
		c0,2.6,0.3,5.2,0.9,7.8c0.6,2.4,1.6,4.7,3,6.8c1.4,2,3.2,3.7,5.3,4.8c2.2,1.2,4.9,1.8,8,1.8c4.6,0,8.2-1.2,10.7-3.5
		c2.5-2.3,4-5.7,4.4-10.1h-14v-10.5h26.6v34.3h-8.9l-1.4-7.2C342.4,277.5,339.6,279.7,336.6,281z"/>
	<polygon id="XMLID_5_" class="st0" points="377.7,218 377.7,269.6 408.7,269.6 408.7,281.4 363.8,281.4 363.8,218 377.7,218 	"/>
	<path id="XMLID_6_" class="st0" d="M311.9,289.3c-21.3,12.9-53.2,20.3-88.8,20.3c-64.1,0-116.1-26.7-116.1-59.6
		c0-32.9,52-59.6,116.1-59.6c35.7,0,67.7,7.5,89,20.5c-23.2-21.8-64.9-37.2-112.6-37.2c-73,0-132.1,34.1-132.1,76.2
		c0,42.1,59.2,76.3,132.1,76.3C247.1,326.3,288.6,311,311.9,289.3z"/>
	<polygon id="XMLID_7_" class="st0" points="195,213.1 182.8,266 168,213.1 156.8,213.1 142,266 129.7,213.1 118.2,213.1 
		136.3,282.1 147.2,282.1 162.5,227.9 177.5,282.1 188.4,282.1 207.2,213.1 	"/>
	<path id="XMLID_8_" class="st0" d="M237.8,242.1c-1.6-2.3-3.8-4.2-6.3-5.5c-2.8-1.3-5.8-2-8.8-1.9c-3.7,0-7.1,0.7-9.9,2
		c-2.7,1.2-5.1,3.1-6.9,5.5c-3.5,4.4-5.3,10.7-5.3,18c0,3.1,0.5,6.2,1.4,9.1c0.9,2.7,2.2,5.2,4,7.3c3.7,4.3,9,6.6,15.3,6.6
		c3.3,0,6-0.3,8.3-1.1c1.5-0.5,3-1.2,4.3-2.1c1.4-0.9,2.7-2,3.8-3.3c1-1.1,1.8-2.3,2.5-3.6c1.3-2.4,1.9-4.6,2.1-5.7l0.1-0.8h-9
		l-0.1,0.6c-0.2,2.9-4.1,8.2-10.9,8.2c-9.8,0-12.1-7.1-12.3-13.3h32.8v-0.7c0-3.7-0.4-7.3-1.2-10.9
		C240.8,247.5,239.5,244.7,237.8,242.1z M221.6,242.8c7.3,0,11.1,3.9,11.8,11.9H210C210.3,248.2,215.5,242.8,221.6,242.8
		L221.6,242.8z"/>
	<path id="XMLID_11_" class="st0" d="M288.1,248.7c-0.8-2.7-2.1-5.1-3.8-7.3c-1.7-2.1-3.8-3.8-6.2-4.9c-2.6-1.2-5.4-1.8-8.3-1.8
		c-2.6,0-5.2,0.6-7.6,1.8c-1.9,1-3.6,2.3-4.9,4v-21.2h-9v62.7h8.5v-4.3c0.8,1.1,1.9,2.1,3,2.9c2.4,1.7,5.4,2.6,8.9,2.6
		c3.8,0,7.1-0.8,9.9-2.5c2.6-1.5,4.8-3.7,6.4-6.3c1.6-2.6,2.7-5.4,3.4-8.3c0.7-2.8,1-5.7,1-8.6C289.4,254.7,289,251.7,288.1,248.7z
		 M280,258.9c0,4.9-1,9-2.9,11.9c-2,3.1-4.9,4.6-8.6,4.6c-5.4,0-11.6-3.8-11.6-14.3c0-5.1,0.6-9,1.9-11.9c1.9-4.3,5-6.3,9.6-6.3
		c4.9,0,8.1,1.9,9.9,5.8C279.8,251.9,280,255.9,280,258.9L280,258.9z"/>
</g>
</svg>
