{
    "asset" : {
        "generator" : "Khronos glTF Blender I/O v1.2.75",
        "version" : "2.0"
    },
    "scene" : 0,
    "scenes" : [
        {
            "name" : "Scene",
            "nodes" : [
                0
            ]
        }
    ],
    "nodes" : [
        {
            "mesh" : 0,
            "name" : "Text"
        }
    ],
    "meshes" : [
        {
            "name" : "Text",
            "primitives" : [
                {
                    "attributes" : {
                        "POSITION" : 0,
                        "NORMAL" : 1
                    },
                    "indices" : 2
                }
            ]
        }
    ],
    "accessors" : [
        {
            "bufferView" : 0,
            "componentType" : 5126,
            "count" : 1449,
            "max" : [
                0.23000632226467133,
                0.05999999865889549,
                0.3190401792526245
            ],
            "min" : [
                -0.23000629246234894,
                -0.05999999865889549,
                -0.4010401964187622
            ],
            "type" : "VEC3"
        },
        {
            "bufferView" : 1,
            "componentType" : 5126,
            "count" : 1449,
            "type" : "VEC3"
        },
        {
            "bufferView" : 2,
            "componentType" : 5123,
            "count" : 6912,
            "type" : "SCALAR"
        }
    ],
    "bufferViews" : [
        {
            "buffer" : 0,
            "byteLength" : 17388,
            "byteOffset" : 0
        },
        {
            "buffer" : 0,
            "byteLength" : 17388,
            "byteOffset" : 17388
        },
        {
            "buffer" : 0,
            "byteLength" : 13824,
            "byteOffset" : 34776
        }
    ],
    "buffers" : [
        {
            "byteLength" : 48600,
            "uri" : "cero.bin"
        }
    ]
}
