{
    "asset" : {
        "generator" : "Khronos glTF Blender I/O v1.2.75",
        "version" : "2.0"
    },
    "scene" : 0,
    "scenes" : [
        {
            "name" : "Scene",
            "nodes" : [
                0
            ]
        }
    ],
    "nodes" : [
        {
            "mesh" : 0,
            "name" : "Text.001"
        }
    ],
    "meshes" : [
        {
            "name" : "Text.001",
            "primitives" : [
                {
                    "attributes" : {
                        "POSITION" : 0,
                        "NORMAL" : 1
                    },
                    "indices" : 2
                }
            ]
        }
    ],
    "accessors" : [
        {
            "bufferView" : 0,
            "componentType" : 5126,
            "count" : 68,
            "max" : [
                0.06000002101063728,
                0.05999999865889549,
                0.3100000321865082
            ],
            "min" : [
                -0.058000002056360245,
                -0.05999999865889549,
                -0.3920000493526459
            ],
            "type" : "VEC3"
        },
        {
            "bufferView" : 1,
            "componentType" : 5126,
            "count" : 68,
            "type" : "VEC3"
        },
        {
            "bufferView" : 2,
            "componentType" : 5123,
            "count" : 276,
            "type" : "SCALAR"
        }
    ],
    "bufferViews" : [
        {
            "buffer" : 0,
            "byteLength" : 816,
            "byteOffset" : 0
        },
        {
            "buffer" : 0,
            "byteLength" : 816,
            "byteOffset" : 816
        },
        {
            "buffer" : 0,
            "byteLength" : 552,
            "byteOffset" : 1632
        }
    ],
    "buffers" : [
        {
            "byteLength" : 2184,
            "uri" : "uno.bin"
        }
    ]
}
