{
    "accessors" : [
        {
            "bufferView" : 0, 
            "componentType" : 5121, 
            "count" : 324, 
            "max" : [
                215
            ], 
            "min" : [
                0
            ], 
            "type" : "SCALAR"
        }, 
        {
            "bufferView" : 1, 
            "componentType" : 5126, 
            "count" : 216, 
            "max" : [
                1.0, 
                1.0000009536743164, 
                0.0
            ], 
            "min" : [
                -1.0, 
                -1.0, 
                -2.0
            ], 
            "type" : "VEC3"
        }, 
        {
            "bufferView" : 2, 
            "componentType" : 5126, 
            "count" : 216, 
            "max" : [
                1.0, 
                1.0, 
                1.0
            ], 
            "min" : [
                -1.0, 
                -1.0, 
                -1.0
            ], 
            "type" : "VEC3"
        }, 
        {
            "bufferView" : 3, 
            "componentType" : 5126, 
            "count" : 216, 
            "max" : [
                1.0, 
                1.0, 
                1.0, 
                1.0
            ], 
            "min" : [
                -1.0, 
                -1.0, 
                -1.0, 
                1.0
            ], 
            "type" : "VEC4"
        }, 
        {
            "bufferView" : 4, 
            "componentType" : 5126, 
            "count" : 216, 
            "max" : [
                0.8493480086326599, 
                0.8493479937314987
            ], 
            "min" : [
                0.15065200626850128, 
                0.1506519913673401
            ], 
            "type" : "VEC2"
        }
    ], 
    "asset" : {
        "generator" : "Khronos Blender glTF 2.0 exporter", 
        "version" : "2.0"
    }, 
    "bufferViews" : [
        {
            "buffer" : 0, 
            "byteLength" : 324, 
            "byteOffset" : 0, 
            "target" : 34963
        }, 
        {
            "buffer" : 0, 
            "byteLength" : 2592, 
            "byteOffset" : 324, 
            "target" : 34962
        }, 
        {
            "buffer" : 0, 
            "byteLength" : 2592, 
            "byteOffset" : 2916, 
            "target" : 34962
        }, 
        {
            "buffer" : 0, 
            "byteLength" : 3456, 
            "byteOffset" : 5508, 
            "target" : 34962
        }, 
        {
            "buffer" : 0, 
            "byteLength" : 1728, 
            "byteOffset" : 8964, 
            "target" : 34962
        }
    ], 
    "buffers" : [
        {
            "byteLength" : 10692, 
            "uri" : "woodenbox2.bin"
        }
    ], 
    "materials" : [
        {
            "alphaMode" : "BLEND", 
            "name" : "Material.005", 
            "pbrMetallicRoughness" : {
                "baseColorFactor" : [
                    0.6399999856948853, 
                    0.6399999856948853, 
                    0.6399999856948853, 
                    1.0
                ], 
                "metallicFactor" : 0.0
            }
        }
    ], 
    "meshes" : [
        {
            "name" : "woodenBox", 
            "primitives" : [
                {
                    "attributes" : {
                        "NORMAL" : 2, 
                        "POSITION" : 1, 
                        "TANGENT" : 3, 
                        "TEXCOORD_0" : 4
                    }, 
                    "indices" : 0, 
                    "material" : 0
                }
            ]
        }
    ], 
    "nodes" : [
        {
            "mesh" : 0, 
            "name" : "woodenBox", 
            "rotation" : [
                0.7071068286895752, 
                0.0, 
                -0.0, 
                0.7071067094802856
            ]
        }
    ], 
    "scene" : 0, 
    "scenes" : [
        {
            "name" : "Scene", 
            "nodes" : [
                0
            ]
        }
    ]
}
