{
  "accessors": [
    {
      "name": "Node-Mesh_positions",
      "componentType": 5126,
      "count": 216,
      "min": [
        -1,
        0,
        -1
      ],
      "max": [
        1,
        2,
        1.0000009536743164
      ],
      "type": "VEC3",
      "bufferView": 0,
      "byteOffset": 0
    },
    {
      "name": "Node-Mesh_normals",
      "componentType": 5126,
      "count": 216,
      "min": [
        -1,
        -1,
        -1
      ],
      "max": [
        1,
        1,
        1
      ],
      "type": "VEC3",
      "bufferView": 0,
      "byteOffset": 2592
    },
    {
      "name": "Node-Mesh_texcoords",
      "componentType": 5126,
      "count": 216,
      "min": [
        0.15065200626850128,
        0.15065200626850128
      ],
      "max": [
        0.8493480086326599,
        0.8493480086326599
      ],
      "type": "VEC2",
      "bufferView": 1,
      "byteOffset": 0
    },
    {
      "name": "Node-Mesh_0_indices",
      "componentType": 5123,
      "count": 324,
      "min": [
        0
      ],
      "max": [
        215
      ],
      "type": "SCALAR",
      "bufferView": 2,
      "byteOffset": 0
    }
  ],
  "asset": {
    "generator": "obj2gltf",
    "version": "2.0"
  },
  "buffers": [
    {
      "name": "woodenBox",
      "byteLength": 279452,
      "uri": "data:application/octet-stream;base64,"
    }
  ],
  "bufferViews": [
    {
      "name": "bufferView_0",
      "buffer": 0,
      "byteLength": 5184,
      "byteOffset": 0,
      "byteStride": 12,
      "target": 34962
    },
    {
      "name": "bufferView_1",
      "buffer": 0,
      "byteLength": 1728,
      "byteOffset": 5184,
      "byteStride": 8,
      "target": 34962
    },
    {
      "name": "bufferView_2",
      "buffer": 0,
      "byteLength": 648,
      "byteOffset": 6912,
      "target": 34963
    },
    {
      "buffer": 0,
      "byteOffset": 7560,
      "byteLength": 271890
    }
  ],
  "images": [
    {
      "name": "PlanksOld0001_L",
      "mimeType": "image/jpeg",
      "bufferView": 3
    }
  ],
  "materials": [
    {
      "name": "Material.005",
      "pbrMetallicRoughness": {
        "baseColorTexture": {
          "index": 0
        },
        "baseColorFactor": [
          1,
          1,
          1,
          1
        ],
        "metallicFactor": 0,
        "roughnessFactor": 0.905882353
      },
      "emissiveFactor": [
        0,
        0,
        0
      ],
      "alphaMode": "OPAQUE",
      "doubleSided": false
    }
  ],
  "meshes": [
    {
      "name": "Node-Mesh",
      "primitives": [
        {
          "attributes": {
            "POSITION": 0,
            "NORMAL": 1,
            "TEXCOORD_0": 2
          },
          "indices": 3,
          "material": 0,
          "mode": 4
        }
      ]
    }
  ],
  "nodes": [
    {
      "name": "Node",
      "mesh": 0
    }
  ],
  "samplers": [
    {
      "magFilter": 9729,
      "minFilter": 9986,
      "wrapS": 10497,
      "wrapT": 10497
    }
  ],
  "scene": 0,
  "scenes": [
    {
      "nodes": [
        0
      ]
    }
  ],
  "textures": [
    {
      "name": "PlanksOld0001_L",
      "sampler": 0,
      "source": 0
    }
  ]
}
