# Blender v2.79 (sub 0) OBJ File: ''
# www.blender.org
mtllib woodenBox.mtl
v 1.000000 -0.000000 1.000000
v -1.000000 -0.000000 1.000000
v -0.750000 -0.000000 0.750000
v 0.750000 -0.000000 0.750000
v -1.000000 2.000000 1.000000
v 0.999999 2.000000 1.000001
v 0.749999 2.000000 0.750000
v -0.750000 2.000000 0.750000
v 1.000000 2.000000 -0.999999
v 0.999999 2.000000 1.000001
v 1.000000 1.750000 0.750000
v 1.000000 1.750000 -0.750000
v -1.000000 -0.000000 1.000000
v 1.000000 -0.000000 1.000000
v 0.750000 0.250000 1.000000
v -0.750000 0.250000 1.000000
v -1.000000 -0.000000 1.000000
v -1.000000 2.000000 1.000000
v -1.000000 1.750000 0.750000
v -1.000000 0.250000 0.750000
v 1.000000 0.000000 -1.000000
v -1.000000 0.000000 -1.000000
v -0.750000 0.250000 -1.000000
v 0.750000 0.250000 -1.000000
v -1.000000 1.750000 -0.750000
v -1.000000 0.250000 -0.750000
v -0.910000 0.250000 -0.750000
v -0.910000 1.750000 -0.750000
v -1.000000 2.000000 -1.000000
v -1.000000 1.750000 -0.750000
v -1.000000 0.000000 -1.000000
v -1.000000 0.250000 -0.750000
v 0.749999 1.750000 1.000000
v -0.750000 1.750000 1.000000
v -0.750000 1.750000 0.910000
v 0.750000 1.750000 0.910000
v 0.999999 2.000000 1.000001
v -1.000000 2.000000 1.000000
v -0.750000 1.750000 1.000000
v 0.749999 1.750000 1.000000
v 1.000000 1.750000 0.750000
v 1.000000 0.250000 0.750000
v 0.910000 0.250000 0.750000
v 0.909999 1.750000 0.750000
v 1.000000 -0.000000 1.000000
v 1.000000 0.250000 0.750000
v 1.000000 0.000000 -1.000000
v 1.000000 0.250000 -0.750000
v 0.750000 0.250000 -1.000000
v -0.750000 0.250000 -1.000000
v -0.750000 0.250000 -0.910000
v 0.750000 0.250000 -0.910000
v 1.000000 2.000000 -0.999999
v 0.750000 1.750000 -1.000000
v -1.000000 2.000000 -1.000000
v -0.750000 1.750000 -1.000000
v -0.750000 2.000000 -0.750000
v -0.750000 2.000000 0.750000
v -0.750000 1.910000 0.750000
v -0.750000 1.910000 -0.750000
v 1.000000 2.000000 -0.999999
v 0.750000 2.000000 -0.750000
v -1.000000 2.000000 -1.000000
v -0.750000 2.000000 -0.750000
v 0.750000 -0.000000 0.750000
v -0.750000 -0.000000 0.750000
v -0.750000 0.090000 0.750000
v 0.750000 0.090000 0.750000
v -1.000000 0.000000 -1.000000
v 1.000000 0.000000 -1.000000
v 0.750000 0.000000 -0.750000
v -0.750000 0.000000 -0.750000
v 0.750000 0.250000 0.910000
v 0.750000 1.750000 0.910000
v -0.750000 1.750000 0.910000
v -0.750000 0.250000 0.910000
v 0.750000 0.250000 1.000000
v 0.749999 1.750000 1.000000
v 0.750000 1.750000 0.910000
v 0.750000 0.250000 0.910000
v -0.750000 1.750000 1.000000
v -0.750000 0.250000 1.000000
v -0.750000 0.250000 0.910000
v -0.750000 1.750000 0.910000
v -0.750000 0.250000 1.000000
v 0.750000 0.250000 1.000000
v 0.750000 0.250000 0.910000
v -0.750000 0.250000 0.910000
v 0.910000 0.250000 -0.750000
v 0.910000 1.750000 -0.750000
v 0.909999 1.750000 0.750000
v 0.910000 0.250000 0.750000
v 1.000000 0.250000 0.750000
v 1.000000 0.250000 -0.750000
v 0.910000 0.250000 -0.750000
v 0.910000 0.250000 0.750000
v 1.000000 1.750000 -0.750000
v 1.000000 1.750000 0.750000
v 0.909999 1.750000 0.750000
v 0.910000 1.750000 -0.750000
v 1.000000 0.250000 -0.750000
v 1.000000 1.750000 -0.750000
v 0.910000 1.750000 -0.750000
v 0.910000 0.250000 -0.750000
v 0.750000 1.750000 -0.910000
v 0.750000 0.250000 -0.910000
v -0.750000 0.250000 -0.910000
v -0.750000 1.750000 -0.910000
v -0.750000 1.750000 -1.000000
v 0.750000 1.750000 -1.000000
v 0.750000 1.750000 -0.910000
v -0.750000 1.750000 -0.910000
v 0.750000 1.750000 -1.000000
v 0.750000 0.250000 -1.000000
v 0.750000 0.250000 -0.910000
v 0.750000 1.750000 -0.910000
v -0.750000 0.250000 -1.000000
v -0.750000 1.750000 -1.000000
v -0.750000 1.750000 -0.910000
v -0.750000 0.250000 -0.910000
v -0.910000 0.250000 0.750000
v -0.910000 1.750000 0.750000
v -0.910000 1.750000 -0.750000
v -0.910000 0.250000 -0.750000
v -1.000000 0.250000 -0.750000
v -1.000000 0.250000 0.750000
v -0.910000 0.250000 0.750000
v -0.910000 0.250000 -0.750000
v -1.000000 1.750000 0.750000
v -1.000000 1.750000 -0.750000
v -0.910000 1.750000 -0.750000
v -0.910000 1.750000 0.750000
v -1.000000 0.250000 0.750000
v -1.000000 1.750000 0.750000
v -0.910000 1.750000 0.750000
v -0.910000 0.250000 0.750000
v 0.750000 1.910000 -0.750000
v -0.750000 1.910000 -0.750000
v -0.750000 1.910000 0.750000
v 0.749999 1.910000 0.750000
v 0.750000 2.000000 -0.750000
v -0.750000 2.000000 -0.750000
v -0.750000 1.910000 -0.750000
v 0.750000 1.910000 -0.750000
v -0.750000 2.000000 0.750000
v 0.749999 2.000000 0.750000
v 0.749999 1.910000 0.750000
v -0.750000 1.910000 0.750000
v 0.749999 2.000000 0.750000
v 0.750000 2.000000 -0.750000
v 0.750000 1.910000 -0.750000
v 0.749999 1.910000 0.750000
v 0.750000 0.090000 -0.750000
v 0.750000 0.090000 0.750000
v -0.750000 0.090000 0.750000
v -0.750000 0.090000 -0.750000
v 0.750000 0.000000 -0.750000
v 0.750000 -0.000000 0.750000
v 0.750000 0.090000 0.750000
v 0.750000 0.090000 -0.750000
v -0.750000 -0.000000 0.750000
v -0.750000 0.000000 -0.750000
v -0.750000 0.090000 -0.750000
v -0.750000 0.090000 0.750000
v -0.750000 0.000000 -0.750000
v 0.750000 0.000000 -0.750000
v 0.750000 0.090000 -0.750000
v -0.750000 0.090000 -0.750000
vt 0.150652 0.150652
vt 0.849348 0.150652
vt 0.849348 0.849348
vt 0.150652 0.849348
vt 0.150652 0.150652
vt 0.849348 0.150652
vt 0.849348 0.849348
vt 0.150652 0.849348
vt 0.150652 0.150652
vt 0.849348 0.150652
vt 0.849348 0.849348
vt 0.150652 0.849348
vt 0.150652 0.150652
vt 0.849348 0.150652
vt 0.849348 0.849348
vt 0.150652 0.849348
vt 0.150652 0.150652
vt 0.849348 0.150652
vt 0.849348 0.849348
vt 0.150652 0.849348
vt 0.150652 0.150652
vt 0.849348 0.150652
vt 0.849348 0.849348
vt 0.150652 0.849348
vt 0.150652 0.150652
vt 0.849348 0.150652
vt 0.849348 0.849348
vt 0.150652 0.849348
vt 0.150652 0.150652
vt 0.849348 0.150652
vt 0.849348 0.849348
vt 0.150652 0.849348
vt 0.150652 0.150652
vt 0.849348 0.150652
vt 0.849348 0.849348
vt 0.150652 0.849348
vt 0.150652 0.150652
vt 0.849348 0.150652
vt 0.849348 0.849348
vt 0.150652 0.849348
vt 0.150652 0.150652
vt 0.849348 0.150652
vt 0.849348 0.849348
vt 0.150652 0.849348
vt 0.150652 0.150652
vt 0.849348 0.150652
vt 0.849348 0.849348
vt 0.150652 0.849348
vt 0.150652 0.150652
vt 0.849348 0.150652
vt 0.849348 0.849348
vt 0.150652 0.849348
vt 0.150652 0.150652
vt 0.849348 0.150652
vt 0.849348 0.849348
vt 0.150652 0.849348
vt 0.150652 0.150652
vt 0.849348 0.150652
vt 0.849348 0.849348
vt 0.150652 0.849348
vt 0.150652 0.150652
vt 0.849348 0.150652
vt 0.849348 0.849348
vt 0.150652 0.849348
vt 0.150652 0.150652
vt 0.849348 0.150652
vt 0.849348 0.849348
vt 0.150652 0.849348
vt 0.150652 0.150652
vt 0.849348 0.150652
vt 0.849348 0.849348
vt 0.150652 0.849348
vt 0.150652 0.150652
vt 0.849348 0.150652
vt 0.849348 0.849348
vt 0.150652 0.849348
vt 0.150652 0.150652
vt 0.849348 0.150652
vt 0.849348 0.849348
vt 0.150652 0.849348
vt 0.150652 0.150652
vt 0.849348 0.150652
vt 0.849348 0.849348
vt 0.150652 0.849348
vt 0.150652 0.150652
vt 0.849348 0.150652
vt 0.849348 0.849348
vt 0.150652 0.849348
vt 0.150652 0.150652
vt 0.849348 0.150652
vt 0.849348 0.849348
vt 0.150652 0.849348
vt 0.150652 0.150652
vt 0.849348 0.150652
vt 0.849348 0.849348
vt 0.150652 0.849348
vt 0.150652 0.150652
vt 0.849348 0.150652
vt 0.849348 0.849348
vt 0.150652 0.849348
vt 0.150652 0.150652
vt 0.849348 0.150652
vt 0.849348 0.849348
vt 0.150652 0.849348
vt 0.150652 0.150652
vt 0.849348 0.150652
vt 0.849348 0.849348
vt 0.150652 0.849348
vt 0.150652 0.150652
vt 0.849348 0.150652
vt 0.849348 0.849348
vt 0.150652 0.849348
vt 0.150652 0.150652
vt 0.849348 0.150652
vt 0.849348 0.849348
vt 0.150652 0.849348
vt 0.150652 0.150652
vt 0.849348 0.150652
vt 0.849348 0.849348
vt 0.150652 0.849348
vt 0.150652 0.150652
vt 0.849348 0.150652
vt 0.849348 0.849348
vt 0.150652 0.849348
vt 0.150652 0.150652
vt 0.849348 0.150652
vt 0.849348 0.849348
vt 0.150652 0.849348
vt 0.150652 0.150652
vt 0.849348 0.150652
vt 0.849348 0.849348
vt 0.150652 0.849348
vt 0.150652 0.150652
vt 0.849348 0.150652
vt 0.849348 0.849348
vt 0.150652 0.849348
vt 0.150652 0.150652
vt 0.849348 0.150652
vt 0.849348 0.849348
vt 0.150652 0.849348
vt 0.150652 0.150652
vt 0.849348 0.150652
vt 0.849348 0.849348
vt 0.150652 0.849348
vt 0.150652 0.150652
vt 0.849348 0.150652
vt 0.849348 0.849348
vt 0.150652 0.849348
vt 0.150652 0.150652
vt 0.849348 0.150652
vt 0.849348 0.849348
vt 0.150652 0.849348
vt 0.150652 0.150652
vt 0.849348 0.150652
vt 0.849348 0.849348
vt 0.150652 0.849348
vt 0.150652 0.150652
vt 0.849348 0.150652
vt 0.849348 0.849348
vt 0.150652 0.849348
vt 0.150652 0.150652
vt 0.849348 0.150652
vt 0.849348 0.849348
vt 0.150652 0.849348
vt 0.150652 0.150652
vt 0.849348 0.150652
vt 0.849348 0.849348
vt 0.150652 0.849348
vt 0.150652 0.150652
vt 0.849348 0.150652
vt 0.849348 0.849348
vt 0.150652 0.849348
vt 0.150652 0.150652
vt 0.849348 0.150652
vt 0.849348 0.849348
vt 0.150652 0.849348
vt 0.150652 0.150652
vt 0.849348 0.150652
vt 0.849348 0.849348
vt 0.150652 0.849348
vt 0.150652 0.150652
vt 0.849348 0.150652
vt 0.849348 0.849348
vt 0.150652 0.849348
vt 0.150652 0.150652
vt 0.849348 0.150652
vt 0.849348 0.849348
vt 0.150652 0.849348
vt 0.150652 0.150652
vt 0.849348 0.150652
vt 0.849348 0.849348
vt 0.150652 0.849348
vt 0.150652 0.150652
vt 0.849348 0.150652
vt 0.849348 0.849348
vt 0.150652 0.849348
vt 0.150652 0.150652
vt 0.849348 0.150652
vt 0.849348 0.849348
vt 0.150652 0.849348
vt 0.150652 0.150652
vt 0.849348 0.150652
vt 0.849348 0.849348
vt 0.150652 0.849348
vt 0.150652 0.150652
vt 0.849348 0.150652
vt 0.849348 0.849348
vt 0.150652 0.849348
vt 0.150652 0.150652
vt 0.849348 0.150652
vt 0.849348 0.849348
vt 0.150652 0.849348
vt 0.150652 0.150652
vt 0.849348 0.150652
vt 0.849348 0.849348
vt 0.150652 0.849348
vn 0.0000 -1.0000 -0.0000
vn 0.0000 1.0000 0.0000
vn 1.0000 0.0000 0.0000
vn 0.0000 -0.0000 1.0000
vn -1.0000 0.0000 0.0000
vn 0.0000 0.0000 -1.0000
usemtl Material.005
s 1
f 1/1/1 2/2/1 3/3/1 4/4/1
f 5/5/2 6/6/2 7/7/2 8/8/2
f 9/9/3 10/10/3 11/11/3 12/12/3
f 13/13/4 14/14/4 15/15/4 16/16/4
f 17/17/5 18/18/5 19/19/5 20/20/5
f 21/21/6 22/22/6 23/23/6 24/24/6
f 25/25/4 26/26/4 27/27/4 28/28/4
f 18/29/5 29/30/5 30/31/5 19/32/5
f 29/33/5 31/34/5 32/35/5 30/36/5
f 31/37/5 17/38/5 20/39/5 32/40/5
f 33/41/1 34/42/1 35/43/1 36/44/1
f 37/45/4 38/46/4 39/47/4 40/48/4
f 38/49/4 13/50/4 16/51/4 39/52/4
f 14/53/4 37/54/4 40/55/4 15/56/4
f 41/57/6 42/58/6 43/59/6 44/60/6
f 10/61/3 45/62/3 46/63/3 11/64/3
f 47/65/3 9/66/3 12/67/3 48/68/3
f 45/69/3 47/70/3 48/71/3 46/72/3
f 49/73/2 50/74/2 51/75/2 52/76/2
f 53/77/6 21/78/6 24/79/6 54/80/6
f 55/81/6 53/82/6 54/83/6 56/84/6
f 22/85/6 55/86/6 56/87/6 23/88/6
f 57/89/3 58/90/3 59/91/3 60/92/3
f 6/93/2 61/94/2 62/95/2 7/96/2
f 63/97/2 5/98/2 8/99/2 64/100/2
f 61/101/2 63/102/2 64/103/2 62/104/2
f 65/105/6 66/106/6 67/107/6 68/108/6
f 69/109/1 70/110/1 71/111/1 72/112/1
f 70/113/1 1/114/1 4/115/1 71/116/1
f 2/117/1 69/118/1 72/119/1 3/120/1
f 73/121/4 74/122/4 75/123/4 76/124/4
f 77/125/5 78/126/5 79/127/5 80/128/5
f 81/129/3 82/130/3 83/131/3 84/132/3
f 85/133/2 86/134/2 87/135/2 88/136/2
f 89/137/3 90/138/3 91/139/3 92/140/3
f 93/141/2 94/142/2 95/143/2 96/144/2
f 97/145/1 98/146/1 99/147/1 100/148/1
f 101/149/4 102/150/4 103/151/4 104/152/4
f 105/153/6 106/154/6 107/155/6 108/156/6
f 109/157/1 110/158/1 111/159/1 112/160/1
f 113/161/5 114/162/5 115/163/5 116/164/5
f 117/165/3 118/166/3 119/167/3 120/168/3
f 121/169/5 122/170/5 123/171/5 124/172/5
f 125/173/2 126/174/2 127/175/2 128/176/2
f 129/177/1 130/178/1 131/179/1 132/180/1
f 133/181/6 134/182/6 135/183/6 136/184/6
f 137/185/2 138/186/2 139/187/2 140/188/2
f 141/189/4 142/190/4 143/191/4 144/192/4
f 145/193/6 146/194/6 147/195/6 148/196/6
f 149/197/5 150/198/5 151/199/5 152/200/5
f 153/201/1 154/202/1 155/203/1 156/204/1
f 157/205/5 158/206/5 159/207/5 160/208/5
f 161/209/3 162/210/3 163/211/3 164/212/3
f 165/213/4 166/214/4 167/215/4 168/216/4
